<svg id="svg" version="1.1" width="400" height="400" viewBox="0 0 400 400" xmlns="http://www.w3.org/2000/svg" xmlns:xlink="http://www.w3.org/1999/xlink" >
<g id="svgg">
<path id="path0" d="M192.800 38.400 C 192.800 38.635,191.400 38.800,189.400 38.800 C 187.400 38.800,186.000 38.965,186.000 39.200 C 186.000 39.420,185.111 39.600,184.024 39.600 C 182.937 39.600,181.936 39.780,181.800 40.000 C 181.664 40.220,180.753 40.400,179.776 40.400 C 178.799 40.400,178.000 40.580,178.000 40.800 C 178.000 41.020,177.381 41.200,176.624 41.200 C 175.867 41.200,175.136 41.380,175.000 41.600 C 174.864 41.820,174.223 42.000,173.576 42.000 C 172.929 42.000,172.400 42.180,172.400 42.400 C 172.400 42.620,171.961 42.800,171.424 42.800 C 170.887 42.800,170.336 42.980,170.200 43.200 C 170.064 43.420,169.423 43.600,168.776 43.600 C 168.129 43.600,167.599 43.735,167.597 43.900 C 167.592 44.352,165.569 45.200,164.497 45.200 C 163.969 45.200,163.662 45.376,163.800 45.600 C 163.936 45.820,163.784 46.000,163.461 46.000 C 163.139 46.000,162.184 46.352,161.338 46.781 C 160.492 47.211,158.956 47.931,157.924 48.380 C 156.893 48.830,155.935 49.381,155.797 49.605 C 155.658 49.830,155.398 49.922,155.218 49.811 C 155.038 49.700,154.671 49.874,154.401 50.198 C 154.132 50.522,153.100 51.193,152.107 51.689 C 151.114 52.185,150.214 52.818,150.108 53.095 C 150.002 53.373,149.653 53.600,149.334 53.600 C 149.014 53.600,148.864 53.780,149.000 54.000 C 149.136 54.220,148.916 54.400,148.512 54.400 C 148.107 54.400,147.517 54.760,147.200 55.200 C 146.883 55.640,146.379 56.000,146.080 56.000 C 145.782 56.000,144.846 56.720,144.000 57.600 C 143.154 58.480,142.270 59.200,142.034 59.200 C 141.479 59.200,131.673 68.968,130.390 70.800 C 129.850 71.570,128.912 72.722,128.304 73.359 C 127.697 73.997,127.200 74.722,127.200 74.971 C 127.200 75.220,126.840 75.683,126.400 76.000 C 125.960 76.317,125.600 76.857,125.600 77.200 C 125.600 77.543,125.240 78.083,124.800 78.400 C 124.360 78.717,124.000 79.257,124.000 79.600 C 124.000 79.943,123.640 80.483,123.200 80.800 C 122.760 81.117,122.400 81.697,122.400 82.088 C 122.400 82.480,122.262 82.800,122.094 82.800 C 121.926 82.800,121.474 83.527,121.089 84.415 C 120.705 85.302,120.122 86.132,119.795 86.257 C 119.468 86.383,119.200 86.739,119.200 87.048 C 119.200 87.569,118.462 89.138,118.000 89.600 C 117.890 89.710,117.747 90.160,117.683 90.600 C 117.570 91.371,116.026 94.790,115.605 95.200 C 115.492 95.310,115.337 95.850,115.261 96.400 C 115.185 96.950,114.976 97.580,114.798 97.800 C 114.620 98.020,114.348 99.055,114.192 100.100 C 114.036 101.145,113.750 102.000,113.555 102.000 C 113.360 102.000,113.200 102.720,113.200 103.600 C 113.200 104.480,113.020 105.200,112.800 105.200 C 112.580 105.200,112.400 105.920,112.400 106.800 C 112.400 107.680,112.220 108.400,112.000 108.400 C 111.780 108.400,111.600 109.109,111.600 109.976 C 111.600 110.843,111.420 111.664,111.200 111.800 C 110.980 111.936,110.800 113.106,110.800 114.400 C 110.800 115.694,110.620 116.864,110.400 117.000 C 110.149 117.155,110.000 121.471,110.000 128.624 C 110.000 135.941,110.143 140.000,110.400 140.000 C 110.629 140.000,110.800 141.200,110.800 142.800 C 110.800 144.400,110.971 145.600,111.200 145.600 C 111.420 145.600,111.600 146.320,111.600 147.200 C 111.600 148.080,111.780 148.800,112.000 148.800 C 112.220 148.800,112.400 149.419,112.400 150.176 C 112.400 150.933,112.580 151.664,112.800 151.800 C 113.020 151.936,113.200 152.656,113.200 153.400 C 113.200 154.144,113.359 154.851,113.554 154.971 C 113.748 155.092,114.032 156.022,114.185 157.038 C 114.337 158.054,114.808 159.502,115.231 160.255 C 115.654 161.008,116.006 161.844,116.013 162.112 C 116.019 162.380,116.559 163.675,117.213 164.990 C 117.866 166.304,118.400 167.699,118.400 168.090 C 118.400 168.480,118.580 168.800,118.800 168.800 C 119.020 168.800,119.200 169.070,119.200 169.400 C 119.200 169.730,119.560 170.360,120.000 170.800 C 120.440 171.240,120.800 171.870,120.800 172.200 C 120.800 172.530,120.980 172.800,121.200 172.800 C 121.420 172.800,121.600 173.160,121.600 173.600 C 121.600 174.040,121.780 174.400,122.000 174.400 C 122.220 174.400,122.400 174.760,122.400 175.200 C 122.400 175.640,122.580 176.000,122.800 176.000 C 123.020 176.000,123.200 176.360,123.200 176.800 C 123.200 177.240,123.380 177.600,123.600 177.600 C 123.820 177.600,124.000 177.960,124.000 178.400 C 124.000 178.840,124.135 179.201,124.300 179.203 C 124.659 179.207,125.600 181.144,125.600 181.880 C 125.600 182.166,125.780 182.400,126.000 182.400 C 126.220 182.400,126.400 182.850,126.400 183.400 C 126.400 183.950,126.559 184.400,126.753 184.400 C 127.102 184.400,127.671 185.710,127.761 186.717 C 127.786 187.001,128.003 187.361,128.242 187.517 C 128.669 187.795,129.395 189.910,129.266 190.500 C 129.230 190.665,129.380 190.800,129.600 190.800 C 129.820 190.800,130.000 191.061,130.000 191.380 C 130.000 191.699,130.298 192.127,130.662 192.331 C 131.046 192.545,131.223 192.963,131.084 193.325 C 130.953 193.668,130.981 194.005,131.148 194.074 C 131.314 194.143,132.425 196.180,133.617 198.600 C 134.808 201.020,135.921 203.060,136.091 203.133 C 136.261 203.207,136.400 203.612,136.400 204.033 C 136.400 204.455,136.580 204.800,136.800 204.800 C 137.020 204.800,137.200 205.160,137.200 205.600 C 137.200 206.040,137.380 206.400,137.600 206.400 C 137.820 206.400,138.000 206.760,138.000 207.200 C 138.000 207.640,138.180 208.000,138.400 208.000 C 138.620 208.000,138.800 208.360,138.800 208.800 C 138.800 209.240,138.980 209.600,139.200 209.600 C 139.420 209.600,139.600 209.945,139.600 210.367 C 139.600 210.788,139.738 211.193,139.907 211.267 C 140.076 211.340,141.738 214.460,143.600 218.200 C 145.462 221.940,147.124 225.060,147.293 225.133 C 147.462 225.207,147.600 225.535,147.600 225.862 C 147.600 226.574,152.056 235.742,152.495 235.933 C 152.663 236.007,152.800 236.412,152.800 236.833 C 152.800 237.255,152.980 237.600,153.200 237.600 C 153.420 237.600,153.600 237.960,153.600 238.400 C 153.600 238.840,153.780 239.200,154.000 239.200 C 154.220 239.200,154.400 239.560,154.400 240.000 C 154.400 240.440,154.580 240.800,154.800 240.800 C 155.020 240.800,155.200 241.160,155.200 241.600 C 155.200 242.040,155.335 242.401,155.500 242.403 C 155.851 242.407,156.800 244.337,156.800 245.046 C 156.800 245.314,156.937 245.593,157.105 245.667 C 157.514 245.845,161.606 254.065,161.603 254.700 C 161.601 254.975,161.799 255.200,162.043 255.200 C 162.286 255.200,162.382 255.470,162.255 255.800 C 162.129 256.130,162.185 256.400,162.381 256.400 C 162.576 256.400,162.855 256.940,163.000 257.600 C 163.145 258.260,163.459 258.800,163.698 258.800 C 163.938 258.800,164.014 258.920,163.867 259.066 C 163.721 259.212,164.059 260.112,164.618 261.066 C 165.176 262.020,165.508 262.800,165.355 262.800 C 165.201 262.800,165.402 263.160,165.800 263.600 C 166.198 264.040,166.402 264.400,166.253 264.400 C 166.104 264.400,166.256 264.819,166.592 265.332 C 166.928 265.844,167.082 266.384,166.935 266.532 C 166.787 266.679,166.843 266.800,167.059 266.800 C 167.274 266.800,167.698 267.430,168.000 268.200 C 168.302 268.970,168.696 269.600,168.875 269.600 C 169.054 269.600,169.200 269.960,169.200 270.400 C 169.200 270.840,169.380 271.200,169.600 271.200 C 169.820 271.200,170.000 271.560,170.000 272.000 C 170.000 272.440,170.180 272.800,170.400 272.800 C 170.620 272.800,170.800 273.160,170.800 273.600 C 170.800 274.040,170.980 274.400,171.200 274.400 C 171.420 274.400,171.600 274.760,171.600 275.200 C 171.600 275.640,171.735 276.001,171.900 276.003 C 172.251 276.007,173.200 277.937,173.200 278.646 C 173.200 278.914,173.338 279.193,173.507 279.267 C 173.675 279.340,175.157 282.100,176.800 285.400 C 178.443 288.700,179.925 291.460,180.093 291.533 C 180.262 291.607,180.400 292.012,180.400 292.433 C 180.400 292.855,180.593 293.200,180.828 293.200 C 181.063 293.200,181.198 293.605,181.128 294.100 C 181.007 294.954,180.800 295.006,177.100 295.114 C 174.944 295.178,173.200 295.401,173.200 295.614 C 173.200 295.831,171.744 296.000,169.880 296.000 C 168.054 296.000,166.389 296.165,166.180 296.368 C 165.971 296.570,164.540 296.844,163.000 296.976 C 157.178 297.476,156.136 297.593,153.800 298.010 C 152.480 298.246,150.770 298.531,150.000 298.644 C 149.230 298.757,148.240 299.007,147.800 299.200 C 147.360 299.393,146.280 299.658,145.400 299.791 C 144.520 299.923,143.124 300.133,142.297 300.258 C 141.471 300.382,140.695 300.645,140.574 300.842 C 140.452 301.039,139.971 301.200,139.505 301.200 C 138.706 301.200,136.795 301.720,135.000 302.425 C 134.251 302.720,133.390 302.929,130.700 303.470 C 130.095 303.591,129.600 303.850,129.600 304.045 C 129.600 304.240,129.060 304.400,128.400 304.400 C 127.740 304.400,127.200 304.580,127.200 304.800 C 127.200 305.020,126.840 305.200,126.400 305.200 C 125.960 305.200,125.600 305.380,125.600 305.600 C 125.600 305.820,125.245 306.000,124.812 306.000 C 124.379 306.000,123.383 306.360,122.600 306.800 C 121.817 307.240,120.956 307.599,120.688 307.597 C 119.981 307.592,113.791 310.763,112.916 311.578 C 112.507 311.959,111.713 312.385,111.150 312.527 C 110.588 312.668,109.514 313.324,108.764 313.985 C 108.014 314.646,107.232 315.190,107.026 315.194 C 106.495 315.203,98.810 322.909,98.805 323.438 C 98.802 323.679,98.452 324.191,98.027 324.576 C 97.602 324.960,97.342 325.505,97.450 325.786 C 97.558 326.067,97.353 326.409,96.995 326.546 C 96.569 326.710,96.429 327.061,96.589 327.564 C 96.723 327.987,96.645 328.448,96.416 328.590 C 96.187 328.731,96.000 329.456,96.000 330.200 C 96.000 330.944,95.820 331.664,95.600 331.800 C 95.078 332.122,95.078 339.078,95.600 339.400 C 95.820 339.536,96.000 340.267,96.000 341.024 C 96.000 341.781,96.180 342.400,96.400 342.400 C 96.620 342.400,96.800 342.760,96.800 343.200 C 96.800 343.640,96.980 344.000,97.200 344.000 C 97.420 344.000,97.600 344.324,97.600 344.720 C 97.600 346.494,104.568 354.800,106.057 354.800 C 106.289 354.800,106.983 355.340,107.600 356.000 C 108.217 356.660,108.969 357.200,109.272 357.200 C 109.575 357.200,110.083 357.560,110.400 358.000 C 110.717 358.440,111.297 358.800,111.688 358.800 C 112.080 358.800,112.400 358.980,112.400 359.200 C 112.400 359.420,112.745 359.600,113.167 359.600 C 113.588 359.600,113.993 359.737,114.067 359.905 C 114.232 360.283,122.441 364.407,123.020 364.403 C 123.674 364.398,125.593 365.365,125.597 365.700 C 125.599 365.865,126.140 366.000,126.800 366.000 C 127.460 366.000,128.000 366.180,128.000 366.400 C 128.000 366.620,128.529 366.800,129.176 366.800 C 129.823 366.800,130.464 366.980,130.600 367.200 C 130.736 367.420,131.287 367.600,131.824 367.600 C 132.361 367.600,132.800 367.780,132.800 368.000 C 132.800 368.220,133.329 368.400,133.976 368.400 C 134.623 368.400,135.252 368.560,135.373 368.756 C 135.494 368.951,136.179 369.213,136.896 369.337 C 139.999 369.873,141.025 370.120,141.411 370.426 C 141.637 370.604,143.217 370.877,144.922 371.031 C 146.627 371.186,148.118 371.467,148.235 371.656 C 148.352 371.845,149.247 372.000,150.224 372.000 C 151.201 372.000,152.000 372.180,152.000 372.400 C 152.000 372.622,153.067 372.800,154.400 372.800 C 155.733 372.800,156.800 372.978,156.800 373.200 C 156.800 373.422,157.867 373.600,159.200 373.600 C 160.533 373.600,161.600 373.778,161.600 374.000 C 161.600 374.231,162.859 374.400,164.576 374.400 C 166.213 374.400,167.664 374.580,167.800 374.800 C 167.937 375.021,169.737 375.200,171.824 375.200 C 174.075 375.200,175.600 375.362,175.600 375.600 C 175.600 375.848,177.800 376.000,181.400 376.000 C 185.000 376.000,187.200 376.152,187.200 376.400 C 187.200 376.658,191.733 376.800,200.000 376.800 C 208.267 376.800,212.800 376.658,212.800 376.400 C 212.800 376.152,215.000 376.000,218.600 376.000 C 222.200 376.000,224.400 375.848,224.400 375.600 C 224.400 375.362,225.925 375.200,228.176 375.200 C 230.263 375.200,232.063 375.021,232.200 374.800 C 232.336 374.580,233.776 374.400,235.400 374.400 C 237.024 374.400,238.464 374.220,238.600 374.000 C 238.736 373.780,239.827 373.600,241.024 373.600 C 242.221 373.600,243.200 373.420,243.200 373.200 C 243.200 372.978,244.267 372.800,245.600 372.800 C 246.933 372.800,248.000 372.622,248.000 372.400 C 248.000 372.180,248.799 372.000,249.776 372.000 C 250.753 372.000,251.649 371.844,251.768 371.652 C 251.886 371.461,253.423 371.179,255.184 371.026 C 256.945 370.872,258.490 370.578,258.617 370.373 C 258.743 370.168,259.456 370.000,260.200 370.000 C 260.944 370.000,261.643 369.854,261.753 369.676 C 261.863 369.498,263.144 369.104,264.600 368.800 C 266.056 368.496,267.337 368.102,267.447 367.924 C 267.557 367.746,268.087 367.600,268.624 367.600 C 269.161 367.600,269.600 367.420,269.600 367.200 C 269.600 366.980,270.140 366.800,270.800 366.800 C 271.460 366.800,272.000 366.620,272.000 366.400 C 272.000 366.180,272.540 366.000,273.200 366.000 C 273.860 366.000,274.401 365.865,274.403 365.700 C 274.407 365.355,276.332 364.400,277.024 364.400 C 277.280 364.400,278.889 363.680,280.600 362.800 C 282.311 361.920,283.956 361.200,284.255 361.200 C 284.555 361.200,284.800 361.054,284.800 360.875 C 284.800 360.696,285.430 360.302,286.200 360.000 C 286.970 359.698,287.600 359.304,287.600 359.125 C 287.600 358.946,287.958 358.800,288.397 358.800 C 288.835 358.800,289.418 358.440,289.693 358.000 C 289.968 357.560,290.437 357.200,290.736 357.200 C 291.035 357.200,291.783 356.660,292.400 356.000 C 293.017 355.340,293.732 354.800,293.990 354.800 C 294.515 354.800,301.200 348.431,301.200 347.931 C 301.200 347.755,301.725 346.754,302.367 345.706 C 303.009 344.658,303.663 343.080,303.819 342.200 C 303.976 341.320,304.283 340.375,304.501 340.100 C 304.973 339.505,304.906 331.616,304.424 331.016 C 304.241 330.787,303.963 329.829,303.808 328.886 C 303.488 326.948,302.668 325.120,301.792 324.393 C 301.466 324.123,301.200 323.718,301.200 323.493 C 301.200 323.267,300.390 322.217,299.400 321.159 C 298.410 320.100,297.600 319.036,297.600 318.794 C 297.600 318.551,297.450 318.445,297.267 318.558 C 297.084 318.672,296.049 317.856,294.967 316.746 C 293.885 315.636,292.640 314.564,292.200 314.365 C 291.372 313.989,290.602 313.528,288.675 312.254 C 286.586 310.873,279.878 307.600,279.136 307.600 C 278.731 307.600,278.400 307.420,278.400 307.200 C 278.400 306.980,278.040 306.800,277.600 306.800 C 277.160 306.800,276.800 306.620,276.800 306.400 C 276.800 306.180,276.260 306.000,275.600 306.000 C 274.940 306.000,274.399 305.865,274.397 305.700 C 274.392 305.253,272.374 304.400,271.320 304.400 C 270.814 304.400,270.400 304.220,270.400 304.000 C 270.400 303.780,269.849 303.600,269.176 303.600 C 268.463 303.600,268.056 303.433,268.200 303.200 C 268.349 302.959,267.812 302.800,266.847 302.800 C 265.967 302.800,265.136 302.620,265.000 302.400 C 264.864 302.180,264.324 302.000,263.800 302.000 C 263.276 302.000,262.736 301.820,262.600 301.600 C 262.464 301.380,261.744 301.200,261.000 301.200 C 260.256 301.200,259.536 301.020,259.400 300.800 C 259.264 300.580,258.544 300.400,257.800 300.400 C 257.056 300.400,256.351 300.244,256.233 300.053 C 256.115 299.862,255.249 299.593,254.309 299.454 C 253.369 299.315,251.610 299.011,250.400 298.777 C 249.190 298.544,247.435 298.255,246.500 298.136 C 245.565 298.017,244.800 297.797,244.800 297.648 C 244.800 297.499,243.507 297.447,241.926 297.533 C 239.059 297.690,238.000 298.176,238.000 299.338 C 238.000 299.665,237.863 299.993,237.696 300.067 C 237.529 300.140,236.589 301.820,235.606 303.800 C 234.623 305.780,233.725 307.490,233.610 307.600 C 233.186 308.004,232.432 310.528,232.636 310.859 C 232.752 311.046,233.816 311.200,235.000 311.200 C 236.184 311.200,237.264 311.380,237.400 311.600 C 237.536 311.820,238.616 312.000,239.800 312.000 C 240.984 312.000,242.064 312.180,242.200 312.400 C 242.336 312.620,243.427 312.800,244.624 312.800 C 245.821 312.800,246.800 312.980,246.800 313.200 C 246.800 313.420,247.599 313.600,248.576 313.600 C 249.553 313.600,250.464 313.780,250.600 314.000 C 250.736 314.220,251.456 314.400,252.200 314.400 C 252.944 314.400,253.664 314.580,253.800 314.800 C 253.936 315.020,254.656 315.200,255.400 315.200 C 256.144 315.200,256.864 315.380,257.000 315.600 C 257.136 315.820,257.856 316.000,258.600 316.000 C 259.344 316.000,260.064 316.180,260.200 316.400 C 260.336 316.620,260.876 316.800,261.400 316.800 C 261.924 316.800,262.464 316.980,262.600 317.200 C 262.736 317.420,263.287 317.600,263.824 317.600 C 264.361 317.600,264.800 317.780,264.800 318.000 C 264.800 318.220,265.115 318.403,265.500 318.406 C 266.317 318.413,269.354 319.432,270.563 320.106 C 271.024 320.362,271.490 320.592,271.600 320.617 C 271.710 320.642,272.475 320.803,273.300 320.976 C 274.125 321.148,274.800 321.449,274.800 321.645 C 274.800 321.840,275.160 322.000,275.600 322.000 C 276.040 322.000,276.400 322.180,276.400 322.400 C 276.400 322.620,276.745 322.800,277.167 322.800 C 277.588 322.800,277.993 322.935,278.067 323.100 C 278.140 323.265,279.055 323.833,280.100 324.363 C 281.145 324.892,282.000 325.477,282.000 325.663 C 282.000 325.848,282.242 326.000,282.538 326.000 C 282.834 326.000,283.402 326.360,283.800 326.800 C 284.198 327.240,284.730 327.600,284.981 327.600 C 286.455 327.600,290.400 333.428,290.400 335.606 C 290.400 336.823,289.472 338.876,288.592 339.607 C 288.266 339.877,288.000 340.337,288.000 340.630 C 288.000 340.922,287.225 341.695,286.277 342.347 C 285.329 342.999,284.310 343.827,284.012 344.186 C 283.713 344.546,282.718 345.182,281.800 345.600 C 280.882 346.018,279.899 346.639,279.616 346.980 C 279.334 347.321,278.899 347.601,278.651 347.602 C 278.403 347.603,277.333 348.043,276.273 348.581 C 275.213 349.119,273.953 349.613,273.473 349.679 C 272.993 349.746,272.510 349.890,272.400 350.000 C 271.950 350.450,270.376 351.200,269.881 351.200 C 269.589 351.200,268.605 351.560,267.694 352.000 C 266.784 352.440,265.771 352.800,265.443 352.800 C 265.115 352.800,264.736 352.980,264.600 353.200 C 264.464 353.420,263.733 353.600,262.976 353.600 C 262.219 353.600,261.600 353.780,261.600 354.000 C 261.600 354.220,261.060 354.400,260.400 354.400 C 259.740 354.400,259.200 354.580,259.200 354.800 C 259.200 355.020,258.581 355.200,257.824 355.200 C 257.067 355.200,256.336 355.380,256.200 355.600 C 256.064 355.820,255.344 356.000,254.600 356.000 C 253.856 356.000,253.136 356.180,253.000 356.400 C 252.864 356.620,252.144 356.800,251.400 356.800 C 250.656 356.800,249.936 356.980,249.800 357.200 C 249.664 357.420,248.753 357.600,247.776 357.600 C 246.799 357.600,246.000 357.780,246.000 358.000 C 246.000 358.220,245.021 358.400,243.824 358.400 C 242.627 358.400,241.536 358.580,241.400 358.800 C 241.264 359.020,240.083 359.200,238.776 359.200 C 237.459 359.200,236.400 359.378,236.400 359.600 C 236.400 359.831,235.133 360.000,233.400 360.000 C 231.550 360.000,230.400 360.163,230.400 360.425 C 230.400 360.697,229.186 360.820,227.009 360.768 C 224.869 360.716,223.408 360.861,223.048 361.161 C 222.658 361.484,220.654 361.616,216.752 361.577 C 212.893 361.538,210.979 361.663,210.880 361.960 C 210.685 362.544,189.200 362.584,189.200 362.000 C 189.200 361.752,187.008 361.600,183.424 361.600 C 180.004 361.600,177.546 361.437,177.400 361.200 C 177.263 360.979,175.455 360.800,173.353 360.800 C 171.263 360.800,169.648 360.646,169.764 360.458 C 169.880 360.270,168.586 360.080,166.888 360.037 C 165.189 359.993,163.740 359.787,163.667 359.578 C 163.593 359.370,162.468 359.200,161.167 359.200 C 159.856 359.200,158.800 359.022,158.800 358.800 C 158.800 358.578,157.733 358.400,156.400 358.400 C 155.067 358.400,154.000 358.222,154.000 358.000 C 154.000 357.780,153.190 357.600,152.200 357.600 C 151.210 357.600,150.400 357.420,150.400 357.200 C 150.400 356.980,149.691 356.800,148.824 356.800 C 147.957 356.800,147.136 356.620,147.000 356.400 C 146.864 356.180,146.144 356.000,145.400 356.000 C 144.656 356.000,143.936 355.820,143.800 355.600 C 143.664 355.380,142.933 355.200,142.176 355.200 C 141.419 355.200,140.800 355.020,140.800 354.800 C 140.800 354.580,140.260 354.400,139.600 354.400 C 138.940 354.400,138.400 354.220,138.400 354.000 C 138.400 353.780,138.085 353.595,137.700 353.590 C 136.875 353.578,131.731 351.865,131.338 351.471 C 131.189 351.322,130.742 351.200,130.345 351.200 C 129.949 351.200,128.983 350.840,128.200 350.400 C 127.417 349.960,126.542 349.600,126.256 349.600 C 125.970 349.600,124.850 349.151,123.768 348.602 C 122.686 348.053,121.597 347.603,121.349 347.602 C 121.101 347.601,120.671 347.327,120.394 346.993 C 120.117 346.659,119.269 346.091,118.510 345.730 C 116.475 344.765,110.400 338.755,110.400 337.708 C 110.400 337.235,110.220 336.736,110.000 336.600 C 109.080 336.031,109.999 332.762,111.408 331.593 C 111.734 331.323,112.000 330.885,112.000 330.621 C 112.000 330.108,113.651 328.400,114.147 328.400 C 114.310 328.400,115.019 327.861,115.722 327.202 C 116.425 326.543,117.203 326.003,117.451 326.002 C 117.699 326.001,118.119 325.738,118.385 325.418 C 118.651 325.098,120.248 324.161,121.934 323.336 C 123.620 322.511,125.090 321.716,125.200 321.568 C 125.310 321.421,126.030 321.166,126.800 321.001 C 127.570 320.837,128.830 320.397,129.600 320.023 C 130.370 319.649,131.810 319.114,132.800 318.833 C 133.790 318.552,134.913 318.160,135.295 317.961 C 135.677 317.762,136.352 317.600,136.795 317.600 C 137.238 317.600,137.600 317.420,137.600 317.200 C 137.600 316.980,137.992 316.800,138.472 316.800 C 139.392 316.800,141.728 316.140,142.895 315.551 C 143.277 315.358,144.121 315.200,144.771 315.200 C 145.421 315.200,146.064 315.020,146.200 314.800 C 146.336 314.580,147.157 314.400,148.024 314.400 C 148.891 314.400,149.600 314.220,149.600 314.000 C 149.600 313.780,150.410 313.600,151.400 313.600 C 152.390 313.600,153.200 313.420,153.200 313.200 C 153.200 312.978,154.267 312.800,155.600 312.800 C 156.933 312.800,158.000 312.622,158.000 312.400 C 158.000 312.180,158.990 312.000,160.200 312.000 C 161.410 312.000,162.400 311.820,162.400 311.600 C 162.400 311.372,163.592 311.200,165.176 311.200 C 166.703 311.200,168.064 311.020,168.200 310.800 C 168.336 310.580,169.967 310.400,171.824 310.400 C 173.808 310.400,175.200 310.235,175.200 310.000 C 175.200 309.753,177.267 309.600,180.600 309.600 C 183.933 309.600,186.000 309.447,186.000 309.200 C 186.000 308.980,186.368 308.800,186.818 308.800 C 187.761 308.800,189.600 310.484,189.600 311.348 C 189.600 311.670,189.738 311.993,189.906 312.067 C 190.074 312.140,191.376 314.540,192.800 317.400 C 194.224 320.260,195.526 322.660,195.694 322.733 C 195.862 322.807,196.000 323.201,196.000 323.610 C 196.000 324.018,196.192 324.472,196.427 324.617 C 196.662 324.762,196.758 325.133,196.640 325.440 C 196.516 325.763,196.674 326.000,197.013 326.000 C 197.336 326.000,197.576 326.135,197.546 326.300 C 197.416 327.034,198.140 329.200,198.517 329.200 C 198.746 329.200,198.813 329.320,198.666 329.468 C 198.256 329.877,199.628 331.200,200.462 331.200 C 200.868 331.200,201.200 330.930,201.200 330.600 C 201.200 330.270,201.380 330.000,201.600 330.000 C 201.820 330.000,202.000 329.702,202.000 329.339 C 202.000 328.975,202.540 327.535,203.200 326.138 C 203.860 324.741,204.400 323.418,204.400 323.199 C 204.400 322.980,204.580 322.800,204.800 322.800 C 205.020 322.800,205.171 322.665,205.136 322.500 C 205.006 321.886,207.187 317.095,207.700 316.867 C 207.865 316.793,208.000 316.514,208.000 316.246 C 208.000 315.537,208.949 313.607,209.300 313.603 C 209.465 313.601,209.600 313.240,209.600 312.800 C 209.600 312.360,209.780 312.000,210.000 312.000 C 210.220 312.000,210.400 311.640,210.400 311.200 C 210.400 310.760,210.580 310.400,210.800 310.400 C 211.020 310.400,211.200 310.040,211.200 309.600 C 211.200 309.160,211.380 308.800,211.600 308.800 C 211.820 308.800,212.000 308.440,212.000 308.000 C 212.000 307.560,212.180 307.200,212.400 307.200 C 212.620 307.200,212.800 306.840,212.800 306.400 C 212.800 305.960,212.980 305.600,213.200 305.600 C 213.420 305.600,213.600 305.240,213.600 304.800 C 213.600 304.360,213.780 304.000,214.000 304.000 C 214.220 304.000,214.400 303.655,214.400 303.233 C 214.400 302.812,214.541 302.407,214.712 302.333 C 214.987 302.216,216.852 298.514,222.939 286.000 C 223.848 284.130,224.729 282.540,224.896 282.467 C 225.063 282.393,225.200 281.988,225.200 281.567 C 225.200 281.145,225.380 280.800,225.600 280.800 C 225.820 280.800,226.000 280.440,226.000 280.000 C 226.000 279.560,226.180 279.200,226.400 279.200 C 226.620 279.200,226.800 278.840,226.800 278.400 C 226.800 277.960,226.980 277.600,227.200 277.600 C 227.420 277.600,227.600 277.240,227.600 276.800 C 227.600 276.360,227.780 276.000,228.000 276.000 C 228.220 276.000,228.400 275.640,228.400 275.200 C 228.400 274.760,228.580 274.400,228.800 274.400 C 229.020 274.400,229.200 274.040,229.200 273.600 C 229.200 273.160,229.380 272.800,229.600 272.800 C 229.820 272.800,230.000 272.440,230.000 272.000 C 230.000 271.560,230.180 271.200,230.400 271.200 C 230.620 271.200,230.800 270.855,230.800 270.433 C 230.800 270.012,230.941 269.607,231.112 269.533 C 231.499 269.368,237.600 257.138,237.600 256.528 C 237.600 256.285,237.870 255.982,238.200 255.855 C 238.530 255.729,238.800 255.259,238.800 254.813 C 238.800 254.366,238.991 254.000,239.224 254.000 C 239.457 254.000,239.545 253.835,239.420 253.632 C 239.295 253.430,239.456 253.001,239.777 252.680 C 240.099 252.358,240.252 251.985,240.117 251.850 C 239.982 251.715,240.198 251.244,240.598 250.802 C 240.997 250.361,241.170 250.000,240.982 250.000 C 240.794 250.000,240.856 249.784,241.120 249.520 C 241.384 249.256,241.600 248.731,241.600 248.353 C 241.600 247.976,241.735 247.607,241.900 247.533 C 242.318 247.348,244.000 243.708,244.000 242.989 C 244.000 242.665,244.180 242.400,244.400 242.400 C 244.620 242.400,244.800 242.040,244.800 241.600 C 244.800 241.160,244.980 240.800,245.200 240.800 C 245.420 240.800,245.600 240.440,245.600 240.000 C 245.600 239.560,245.780 239.200,246.000 239.200 C 246.220 239.200,246.400 238.840,246.400 238.400 C 246.400 237.960,246.580 237.600,246.800 237.600 C 247.020 237.600,247.200 237.255,247.200 236.833 C 247.200 236.412,247.341 236.007,247.512 235.933 C 247.787 235.816,249.652 232.114,255.739 219.600 C 256.648 217.730,257.529 216.140,257.696 216.067 C 257.863 215.993,258.000 215.588,258.000 215.167 C 258.000 214.745,258.180 214.400,258.400 214.400 C 258.620 214.400,258.800 214.040,258.800 213.600 C 258.800 213.160,258.980 212.800,259.200 212.800 C 259.420 212.800,259.600 212.440,259.600 212.000 C 259.600 211.560,259.780 211.200,260.000 211.200 C 260.220 211.200,260.400 210.840,260.400 210.400 C 260.400 209.960,260.580 209.600,260.800 209.600 C 261.020 209.600,261.200 209.240,261.200 208.800 C 261.200 208.360,261.380 208.000,261.600 208.000 C 261.820 208.000,262.000 207.640,262.000 207.200 C 262.000 206.760,262.180 206.400,262.400 206.400 C 262.620 206.400,262.800 206.040,262.800 205.600 C 262.800 205.160,262.980 204.800,263.200 204.800 C 263.420 204.800,263.600 204.455,263.600 204.033 C 263.600 203.612,263.740 203.207,263.912 203.133 C 264.178 203.020,267.628 196.168,272.540 186.000 C 273.231 184.570,273.932 183.340,274.098 183.267 C 274.264 183.193,274.400 182.788,274.400 182.367 C 274.400 181.945,274.580 181.600,274.800 181.600 C 275.020 181.600,275.200 181.240,275.200 180.800 C 275.200 180.360,275.380 180.000,275.600 180.000 C 275.820 180.000,276.000 179.640,276.000 179.200 C 276.000 178.760,276.180 178.400,276.400 178.400 C 276.620 178.400,276.800 178.166,276.800 177.880 C 276.800 177.144,277.741 175.207,278.100 175.203 C 278.265 175.201,278.400 174.742,278.400 174.183 C 278.400 173.624,278.760 172.780,279.200 172.308 C 279.640 171.836,280.000 171.213,280.000 170.925 C 280.000 170.636,280.180 170.400,280.400 170.400 C 280.620 170.400,280.800 170.040,280.800 169.600 C 280.800 169.160,280.936 168.800,281.102 168.800 C 281.372 168.800,281.785 167.961,282.777 165.400 C 282.947 164.960,283.472 163.818,283.943 162.862 C 284.414 161.906,284.800 160.792,284.800 160.386 C 284.800 159.980,284.980 159.536,285.200 159.400 C 285.420 159.264,285.600 158.724,285.600 158.200 C 285.600 157.676,285.780 157.136,286.000 157.000 C 286.220 156.864,286.400 156.324,286.400 155.800 C 286.400 155.276,286.567 154.744,286.772 154.617 C 286.977 154.491,287.272 153.362,287.429 152.108 C 287.585 150.855,287.941 149.602,288.220 149.323 C 288.543 149.000,288.648 148.236,288.510 147.208 C 288.369 146.151,288.450 145.600,288.747 145.600 C 289.029 145.600,289.200 144.777,289.200 143.424 C 289.200 142.227,289.380 141.136,289.600 141.000 C 289.829 140.859,290.000 138.812,290.000 136.225 C 290.000 132.912,290.145 131.578,290.540 131.250 C 291.159 130.736,291.016 125.894,290.376 125.667 C 290.169 125.593,290.000 123.489,290.000 120.990 C 290.000 118.393,289.829 116.341,289.600 116.200 C 289.380 116.064,289.200 114.984,289.200 113.800 C 289.200 112.616,289.020 111.536,288.800 111.400 C 288.580 111.264,288.400 110.353,288.400 109.376 C 288.400 108.399,288.220 107.600,288.000 107.600 C 287.780 107.600,287.600 106.976,287.600 106.214 C 287.600 104.834,286.725 101.628,285.987 100.305 C 285.774 99.923,285.600 99.259,285.600 98.829 C 285.600 98.399,285.420 97.936,285.200 97.800 C 284.980 97.664,284.800 97.209,284.800 96.789 C 284.800 96.368,284.440 95.383,284.000 94.600 C 283.560 93.817,283.200 92.940,283.200 92.652 C 283.200 92.071,279.353 84.364,278.890 84.018 C 278.730 83.898,278.330 83.260,278.002 82.600 C 277.674 81.940,277.089 81.109,276.703 80.753 C 276.316 80.397,276.000 79.827,276.000 79.486 C 276.000 79.146,275.834 78.807,275.630 78.733 C 275.427 78.660,275.202 78.332,275.130 78.004 C 275.059 77.676,274.505 76.929,273.900 76.343 C 273.295 75.758,272.800 75.057,272.800 74.786 C 272.800 74.516,272.476 74.003,272.081 73.647 C 271.686 73.291,270.934 72.370,270.410 71.600 C 269.209 69.834,257.720 58.400,257.147 58.400 C 256.912 58.400,256.217 57.860,255.600 57.200 C 254.983 56.540,254.236 55.998,253.940 55.996 C 253.643 55.994,252.975 55.454,252.455 54.796 C 251.935 54.138,251.282 53.600,251.004 53.600 C 250.726 53.600,250.266 53.321,249.984 52.980 C 249.701 52.639,248.700 52.010,247.759 51.581 C 246.818 51.153,245.941 50.627,245.809 50.414 C 245.677 50.201,244.361 49.468,242.884 48.786 C 241.408 48.104,239.140 47.018,237.844 46.373 C 236.548 45.728,235.279 45.200,235.024 45.200 C 234.332 45.200,232.407 44.245,232.403 43.900 C 232.401 43.735,231.860 43.600,231.200 43.600 C 230.540 43.600,230.000 43.420,230.000 43.200 C 230.000 42.980,229.460 42.800,228.800 42.800 C 228.140 42.800,227.600 42.620,227.600 42.400 C 227.600 42.180,227.060 42.000,226.400 42.000 C 225.740 42.000,225.200 41.820,225.200 41.600 C 225.200 41.380,224.480 41.200,223.600 41.200 C 222.720 41.200,222.000 41.020,222.000 40.800 C 222.000 40.580,221.190 40.400,220.200 40.400 C 219.210 40.400,218.400 40.220,218.400 40.000 C 218.400 39.780,217.500 39.600,216.400 39.600 C 215.300 39.600,214.400 39.420,214.400 39.200 C 214.400 38.965,213.008 38.800,211.024 38.800 C 209.167 38.800,207.536 38.620,207.400 38.400 C 207.250 38.157,204.329 38.000,199.976 38.000 C 195.459 38.000,192.800 38.148,192.800 38.400 M201.200 79.600 C 201.200 79.833,202.525 80.000,204.376 80.000 C 206.123 80.000,207.664 80.180,207.800 80.400 C 207.936 80.620,208.667 80.800,209.424 80.800 C 210.181 80.800,210.800 80.980,210.800 81.200 C 210.800 81.420,211.340 81.600,212.000 81.600 C 212.660 81.600,213.200 81.744,213.200 81.920 C 213.200 82.095,213.875 82.467,214.700 82.746 C 216.839 83.469,218.086 84.097,218.975 84.900 C 219.402 85.285,219.959 85.600,220.214 85.600 C 220.469 85.600,221.093 85.960,221.600 86.400 C 222.107 86.840,222.668 87.200,222.846 87.200 C 223.315 87.200,230.179 94.147,230.311 94.755 C 230.372 95.037,230.957 95.837,231.609 96.534 C 232.262 97.230,232.797 97.962,232.798 98.160 C 232.801 98.722,234.933 102.984,235.285 103.133 C 235.458 103.207,235.600 103.777,235.600 104.400 C 235.600 105.023,235.772 105.593,235.982 105.667 C 236.193 105.740,236.410 106.475,236.464 107.300 C 236.519 108.125,236.707 108.800,236.882 108.800 C 237.057 108.800,237.200 109.599,237.200 110.576 C 237.200 111.553,237.380 112.464,237.600 112.600 C 237.830 112.742,238.000 114.863,238.000 117.600 C 238.000 120.337,237.830 122.458,237.600 122.600 C 237.380 122.736,237.200 123.636,237.200 124.600 C 237.200 125.564,237.020 126.464,236.800 126.600 C 236.580 126.736,236.400 127.467,236.400 128.224 C 236.400 128.981,236.220 129.600,236.000 129.600 C 235.780 129.600,235.600 129.960,235.600 130.400 C 235.600 130.840,235.420 131.200,235.200 131.200 C 234.980 131.200,234.800 131.525,234.800 131.921 C 234.800 132.752,232.892 136.743,232.120 137.529 C 231.834 137.819,231.600 138.216,231.600 138.410 C 231.600 138.605,231.150 139.214,230.600 139.764 C 230.050 140.314,229.600 140.955,229.600 141.188 C 229.600 141.850,223.687 147.600,223.006 147.600 C 222.673 147.600,222.400 147.758,222.400 147.951 C 222.400 148.145,221.860 148.527,221.200 148.800 C 220.540 149.073,220.000 149.428,220.000 149.588 C 220.000 149.748,219.190 150.213,218.200 150.622 C 217.210 151.030,216.400 151.507,216.400 151.682 C 216.400 151.857,216.040 152.000,215.600 152.000 C 215.160 152.000,214.800 152.180,214.800 152.400 C 214.800 152.620,214.260 152.800,213.600 152.800 C 212.940 152.800,212.400 152.980,212.400 153.200 C 212.400 153.420,211.961 153.600,211.424 153.600 C 210.887 153.600,210.336 153.780,210.200 154.000 C 210.064 154.220,209.254 154.400,208.400 154.400 C 207.546 154.400,206.736 154.580,206.600 154.800 C 206.452 155.039,203.863 155.200,200.176 155.200 C 196.325 155.200,194.000 155.049,194.000 154.800 C 194.000 154.580,193.100 154.400,192.000 154.400 C 190.900 154.400,190.000 154.220,190.000 154.000 C 190.000 153.780,189.460 153.600,188.800 153.600 C 188.140 153.600,187.600 153.420,187.600 153.200 C 187.600 152.980,187.287 152.800,186.904 152.800 C 186.249 152.800,180.433 150.125,180.000 149.624 C 179.890 149.497,179.126 148.944,178.303 148.396 C 177.479 147.848,176.804 147.265,176.803 147.100 C 176.801 146.935,176.520 146.800,176.178 146.800 C 175.417 146.800,170.800 142.170,170.800 141.406 C 170.800 141.105,170.389 140.530,169.886 140.129 C 169.384 139.728,168.259 137.960,167.386 136.200 C 166.514 134.440,165.665 132.940,165.500 132.867 C 165.335 132.793,165.200 132.388,165.200 131.967 C 165.200 131.545,165.020 131.200,164.800 131.200 C 164.580 131.200,164.400 130.660,164.400 130.000 C 164.400 129.340,164.220 128.800,164.000 128.800 C 163.780 128.800,163.600 128.260,163.600 127.600 C 163.600 126.940,163.420 126.400,163.200 126.400 C 162.980 126.400,162.800 125.421,162.800 124.224 C 162.800 123.027,162.620 121.936,162.400 121.800 C 162.177 121.662,162.000 119.796,162.000 117.576 C 162.000 115.192,162.160 113.600,162.400 113.600 C 162.622 113.600,162.800 112.533,162.800 111.200 C 162.800 109.867,162.978 108.800,163.200 108.800 C 163.420 108.800,163.600 108.271,163.600 107.624 C 163.600 106.977,163.780 106.336,164.000 106.200 C 164.220 106.064,164.400 105.513,164.400 104.976 C 164.400 104.439,164.580 104.000,164.800 104.000 C 165.020 104.000,165.200 103.675,165.200 103.279 C 165.200 102.363,167.051 98.621,167.819 97.984 C 168.139 97.719,168.400 97.282,168.400 97.013 C 168.400 96.744,168.760 96.198,169.200 95.800 C 169.640 95.402,170.000 94.859,170.000 94.593 C 170.000 94.078,175.969 87.825,176.536 87.745 C 176.721 87.719,177.441 87.272,178.136 86.753 C 179.962 85.389,181.874 84.407,182.156 84.689 C 182.290 84.824,182.401 84.768,182.401 84.567 C 182.402 84.365,183.392 83.750,184.600 83.200 C 185.808 82.650,186.798 82.065,186.799 81.900 C 186.799 81.735,187.340 81.600,188.000 81.600 C 188.660 81.600,189.200 81.420,189.200 81.200 C 189.200 80.980,189.920 80.800,190.800 80.800 C 191.680 80.800,192.400 80.620,192.400 80.400 C 192.400 80.168,193.704 79.997,195.500 79.994 C 197.205 79.991,198.870 79.813,199.200 79.600 C 199.986 79.092,201.200 79.092,201.200 79.600 " stroke="none" fill="#FCF8B0" fill-rule="evenodd">
</path>
</g>
</svg>